# xmcd
#
# Track frame offsets:
#	150
#	7441
#	15127
#	20782
#	28115
#	35060
#	40704
#	53275
#	59938
#	66203
#	72375
#	77081
#	90655
#
# Disc length: 1318 seconds
#
# Revision: 1
# Processed by: cddbd v1.5.2PL0 Copyright (c) Steve Scherf et al.
# Submitted via: audiograbber 1.83.01
#
DISCID=ad05240d
DTITLE=Summon The Crows - Scavengers Feast
DYEAR=2010
DGENRE=punk
TTITLE0=Wind of Chains
TTITLE1=Tradition
TTITLE2=The Fear of Death
TTITLE3=Salvation?
TTITLE4=Void
TTITLE5=Overpowered
TTITLE6=Scavengers Feast
TTITLE7=The Third Side
TTITLE8=In Silent Death
TTITLE9=The Prayer
TTITLE10=Consumption
TTITLE11=Life Is Shit
TTITLE12=Empires Rise - Empires Fall
EXTD=
EXTT0=
EXTT1=
EXTT2=
EXTT3=
EXTT4=
EXTT5=
EXTT6=
EXTT7=
EXTT8=
EXTT9=
EXTT10=
EXTT11=
EXTT12=
PLAYORDER=
